<?xml version="1.0" encoding="UTF-8"?>
<svg id="Calque_1" data-name="Calque 1" xmlns="http://www.w3.org/2000/svg" xmlns:xlink="http://www.w3.org/1999/xlink" viewBox="0 0 578 649" height="449" width="378">
  <defs>
    <style>
      .cls-1 {
        fill: url(#Dégradé_sans_nom_4);
      }

      .cls-1, .cls-2 {
        stroke-width: 0px;
      }

      .cls-2 {
        fill: url(#Dégradé_sans_nom_35);
      }
    </style>
    <radialGradient id="Dégradé_sans_nom_35" data-name="Dégradé sans nom 35" cx="287.33" cy="444.33" fx="287.33" fy="444.33" r="293.7" gradientUnits="userSpaceOnUse">
      <stop offset="0" stop-color="#a2c750"/>
      <stop offset="1" stop-color="#345e63"/>
    </radialGradient>
    <radialGradient id="Dégradé_sans_nom_4" data-name="Dégradé sans nom 4" cx="287.33" cy="444.33" fx="287.33" fy="444.33" r="293.7" gradientUnits="userSpaceOnUse">
      <stop offset=".21" stop-color="#7da456"/>
      <stop offset="1" stop-color="#345e63"/>
    </radialGradient>
  </defs>
  <path class="cls-2" d="M220.03,451.04c2.62-17.32-3.07-34.8-15.18-47.45-20.03-20.92-32.36-49.25-32.36-80.44,0-51.33,33.37-94.98,79.55-110.47,2.56-.86,4.46-3.01,4.87-5.68.97-6.44,1.95-12.88,2.92-19.32.76-5.01-3.87-9.16-8.76-7.86l-.24.06c-6.09,1.62-11.11-4.93-7.95-10.39l39.99-69.26c2.73-4.73,9.56-4.73,12.29,0l39.99,69.26c3.15,5.46-1.86,12.01-7.95,10.39l-.2-.05c-4.9-1.3-9.53,2.85-8.77,7.86.98,6.44,1.96,12.88,2.94,19.33.4,2.67,2.31,4.82,4.86,5.68,46.15,15.51,79.49,59.14,79.49,110.45,0,31.11-12.27,59.38-32.21,80.28-12.08,12.66-17.74,30.13-15.12,47.43l.03.2c1.78,11.71,11.85,20.36,23.69,20.36h151.99c5.46,0,8.87-5.91,6.14-10.64L295.15,36.6c-2.73-4.73-9.56-4.73-12.29,0L37.96,460.78c-2.73,4.73.68,10.64,6.14,10.64h152.24c11.85,0,21.92-8.66,23.69-20.38h0ZM478.79,439.6h-79.5c-6.37,0-9.42-7.65-4.94-12.17,17.79-17.97,31.01-40.45,37.79-65.59,1.66-6.15,9.82-7.32,13-1.81l39.8,68.93c2.73,4.73-.68,10.64-6.14,10.64ZM93.07,428.96l39.8-68.93c3.18-5.51,11.35-4.34,13,1.81,6.78,25.14,20,47.62,37.79,65.59,4.48,4.52,1.42,12.17-4.94,12.17h-79.5c-5.46,0-8.87-5.91-6.14-10.64Z"/>
  <path class="cls-1" d="M289.77,232.63c-45.09-2.06-88.68,36.38-88.59,86.59.09,45.48,32.04,87.32,87.25,88.38,53.65,1.03,87.86-43.17,88.39-87.09.58-48.28-40.97-89.88-87.05-87.87ZM312.46,388.51c.05-.15.07-.29.13-.43.73-1.7,1.95-3.22,3.08-4.71,2.1-2.76,4.08-5.68,6.55-8.09,2.07-2.02,4.57-3.89,7.22-4.96,4.3-1.74,8.86-2.88,13.37-4.02.46-.12,1.15.12,1.76.47-8.62,10.13-19.84,17.7-32.11,21.73ZM231.34,363.53c.75.01,1.69.22,2.92.65,3.56,1.23,7.19,2.3,10.7,3.67,4.64,1.82,8.81,4.28,11.56,8.77,1.36,2.21,3.44,3.97,4.98,6.08,1.03,1.41,1.99,2.99,2.5,4.64-13.16-4.68-24.41-12.98-32.66-23.81ZM216.56,319.45c-.04-15.96,5.57-30.93,14.83-43.08.78,1.06,1.13,2.56.91,4.44-.64,5.63-1.24,11.27-2.21,16.84-1.48,8.43-6.3,15.43-10.34,22.73-.51.92-1.63,1.5-2.83,2.56-.07-.08-.13-.17-.19-.25-.05-1.08-.16-2.15-.16-3.25ZM292.07,267.5c-.1-2.69,1.19-4.39,3.55-5.4.81-.34,1.66-.6,2.52-.78,5.27-1.14,10.56-2.16,15.8-3.41,3.22-.76,6.07-.12,8.93,1.33,7.11,3.61,13.18,8.61,18.14,14.72,1.76,2.16,2.32,5.7,2.47,8.67.24,4.72-.08,9.51-.69,14.2-.2,1.54-1.75,3.58-3.18,4.17-4.44,1.83-9.09,3.14-13.7,4.54-4.21,1.28-7.69.12-11.18-2.7-6.01-4.85-12.42-9.19-18.67-13.73-2.62-1.9-3.76-4.58-3.93-7.68-.13-2.42-.03-4.86-.03-7.29,0-2.21.06-4.42-.02-6.63ZM361.44,319.07c-1-.25-1.99-.84-2.82-1.89-6.46-8.19-12.18-16.75-9.64-28.14.59-2.64.56-5.42.82-8.24.19-.1.35-.11.54-.19,6.65,10.58,10.72,23.49,11.1,38.46ZM290.3,390.4c-2.97,0-5.93-.41-8.9-.43-5.15-.04-9.39-2.06-12.6-5.93-3.49-4.22-6.75-8.64-9.98-13.07-1.74-2.39-.86-5.02.51-7.09,2.06-3.13,4.83-5.78,6.89-8.91,3.64-5.51,8.98-6.45,15.15-5.85,2.13.21,4.28.16,6.44.05,5.28-.27,10.6-.94,15.7.76,7.67,2.55,11.73,10.15,14.97,17.01.4.85.14,2.27-.29,3.2-3.25,6.96-8,12.84-14.03,17.49-3.98,3.07-9.06,2.78-13.85,2.79ZM253.71,361.28c-2.1,2.4-5.27,2.34-7.9,1.37-5.47-2.01-10.78-4.48-16.1-6.87-.72-.33-1.2-1.31-1.67-2.06-3.73-6-6.4-12.48-7.28-19.46-.36-2.83.33-6.15,1.57-8.76,2.89-6.08,6.4-11.85,10.02-18.42,7.16,2.09,14.05,3.73,20.62,6.23,2.15.82,3.99,3.62,5.03,5.94,1.6,3.55,2.36,7.48,3.54,11.23.77,2.47,1.47,4.97,2.5,7.33,1.76,4.07,1.64,8-.9,11.56-2.94,4.12-6.1,8.1-9.42,11.92ZM311.71,345.08c3.29-9.24,6.56-18.61,9.99-27.91,1.12-3.04,3.74-4.69,6.75-5.56,4.39-1.27,8.78-2.59,13.25-3.49,1.29-.26,3.21.46,4.21,1.41,2.16,2.04,4.13,4.38,5.79,6.86,2.11,3.15,3.97,6.48,5.64,9.88.63,1.29.73,3.02.57,4.48-.95,8.46-4.09,16.22-8.26,23.54-1,1.75-2.71,3.65-4.52,4.28-5.54,1.95-11.22,3.58-16.96,4.8-3.26.7-5.8-1.52-7.54-4.12-3.04-4.54-5.83-9.24-8.91-14.18ZM312.2,307.09c4.74,3.66,5.13,5.81,3.21,11.41-2.32,6.76-4.64,13.52-6.87,20.31-.87,2.63-2.49,4.31-5.2,4.79-1.89.33-3.81.49-5.1.64-6.77,0-12.89,0-19.02,0-6.34,0-8.68-1.99-10.35-8.03-1.94-7-4.13-13.93-6.34-20.84-.88-2.76-.25-4.68,2.03-6.46,6.99-5.45,13.89-11.03,20.79-16.6,2.2-1.78,4.42-1.69,6.57-.14,6.8,4.92,13.65,9.79,20.29,14.92ZM284.74,284.22c-.11.98-.82,2.09-1.58,2.77-2.89,2.58-5.9,5.03-8.91,7.49-3.95,3.22-8.04,6.29-11.87,9.64-3.03,2.65-6.42,2.92-9.98,2.08-4.31-1.01-8.56-2.29-12.79-3.58-2.98-.91-5-4.7-4.55-9.15.43-4.18,1.88-8.29,1.95-12.45.16-8.98,5.83-13.67,12.31-18.45,8.19-6.04,16.46-6.9,25.53-2.74,1.3.6,2.71.97,4.07,1.43,5.54,1.85,6.92,3.8,6.86,9.7-.33,4.43-.58,8.86-1.06,13.27ZM290,247.43c7.77.18,15.38,1.56,22.6,3.95-.84,1.16-2.37,1.81-3.8,2.26-6.3,1.98-12.84,3.36-19.45,3.41-6.61.04-13.3-1.3-19.08-4.51-.85-.47-1.77-1.13-2.23-2.03,6.97-2.15,14.35-3.26,21.96-3.08Z"/>
  <g>
    <path class="cls-2" d="M67.43,522.83c-.8,0-1.28.48-1.28,1.28v72.93c0,.8.48,1.28,1.28,1.28h5.45c.8,0,1.28-.48,1.28-1.28v-25c0-1.76.8-2.56,2.57-2.56h20.19c1.76,0,2.57.8,2.57,2.56v31.73c0,8.18-4.01,12.18-12.18,12.18h-37.18c-9.14,0-13.62-4.65-13.62-13.79v-83.18c0-9.13,4.49-13.78,13.62-13.78h46.8c1.76,0,2.57.8,2.57,2.57v38.31c0,1.76-.8,2.56-2.57,2.56h-20.19c-1.76,0-2.57-.8-2.57-2.56v-22.28c0-.64-.32-.96-.96-.96h-5.77Z"/>
    <path class="cls-2" d="M125.45,615.95c-1.76,0-2.56-.8-2.56-2.56v-105.62c0-1.76.8-2.57,2.4-2.57h25.48c1.76,0,2.57.8,2.57,2.57v86.71c0,.8.48,1.28,1.28,1.28h14.91c1.76,0,2.56.8,2.56,2.56v15.07c0,1.76-.8,2.56-2.56,2.56h-44.08Z"/>
    <path class="cls-2" d="M224.01,613.39c0,1.76-.96,2.56-2.56,2.56h-25.49c-1.6,0-2.56-.8-2.56-2.56v-105.62c0-1.6.96-2.57,2.56-2.57h25.49c1.6,0,2.56.96,2.56,2.57v105.62Z"/>
    <path class="cls-2" d="M311.52,556.49l4.33,5.29c.8,1.12,1.12,2.4,1.12,3.85v39.75c0,7.05-3.53,10.58-10.58,10.58h-55.3c-1.44,0-2.56-.8-2.56-2.24v-106.27c0-1.44,1.12-2.24,2.56-2.24h53.69c7.05,0,10.58,3.53,10.58,10.58v33.5c0,1.45-.32,2.73-1.12,3.85l-2.72,3.37ZM279.94,522.83c-.64,0-.96.32-.96.96v26.12c0,.64.32.96.96.96h5.61l.96-.96c.32-.32.48-.64.48-1.12v-23.72c0-1.44-.8-2.24-2.24-2.24h-4.81ZM284.75,598.32c1.44,0,2.24-.8,2.24-2.24v-29.97c0-.48-.16-.8-.48-1.12l-.96-.96h-5.61c-.64,0-.96.32-.96.96v32.38c0,.64.32.96.96.96h4.81Z"/>
    <path class="cls-2" d="M340.2,600.56v-79.98c0-10.26,5.13-15.39,15.23-15.39h36.23c10.26,0,15.38,5.13,15.38,15.39v79.98c0,10.25-5.13,15.38-15.38,15.38h-36.23c-10.1,0-15.23-5.13-15.23-15.38ZM371.13,522.83c-.8,0-1.28.48-1.28,1.28v72.93c0,.8.48,1.28,1.28,1.28h5.45c.8,0,1.28-.48,1.28-1.28v-72.93c0-.8-.48-1.28-1.28-1.28h-5.45Z"/>
    <path class="cls-2" d="M538.78,505.2c1.76,0,2.72.8,2.72,2.57v105.62c0,1.76-.8,2.56-2.4,2.56h-17.95c-1.76,0-2.56-.8-2.56-2.56v-85.11c0-.96-.48-1.44-1.6-1.44h-.96c-.96,0-1.44.48-1.44,1.44l-3.85,85.11c0,1.76-.8,2.56-2.4,2.56h-45.04c-1.6,0-2.4-.8-2.4-2.56l-3.85-85.11c0-.96-.48-1.44-1.44-1.44h-.96c-1.12,0-1.6.48-1.6,1.44v85.11c0,1.76-.8,2.56-2.4,2.56h-17.47c-1.6,0-2.4-.8-2.4-2.56v-105.62c0-1.76.96-2.57,2.88-2.57h46.96c1.76,0,2.56.8,2.56,2.57l1.92,85.11c0,.96.48,1.44,1.44,1.44h.96c1.12,0,1.6-.48,1.6-1.44l1.92-85.11c0-1.76.8-2.57,2.41-2.57h45.36Z"/>
  </g>
</svg>